<svg width="21" height="22" viewBox="0 0 21 22" fill="none" xmlns="http://www.w3.org/2000/svg">
<path d="M14.0115 21V17C14.1506 15.7473 13.7914 14.4901 13.0115 13.5C16.0115 13.5 19.0115 11.5 19.0115 8C19.0915 6.75 18.7415 5.52 18.0115 4.5C18.2915 3.35 18.2915 2.15 18.0115 1C18.0115 1 17.0115 1 15.0115 2.5C12.3715 2 9.65151 2 7.01151 2.5C5.01151 1 4.01151 1 4.01151 1C3.71151 2.15 3.71151 3.35 4.01151 4.5C3.28339 5.51588 2.92998 6.75279 3.01151 8C3.01151 11.5 6.01151 13.5 9.01151 13.5C8.62151 13.99 8.33151 14.55 8.16151 15.15C7.99151 15.75 7.94151 16.38 8.01151 17V21" stroke="#4B5563" stroke-width="2" stroke-linecap="round" stroke-linejoin="round"/>
<path d="M8 17C3.49 19 3 15 1 15" stroke="#4B5563" stroke-width="2" stroke-linecap="round" stroke-linejoin="round"/>
</svg>
