<svg width="18" height="18" viewBox="0 0 18 18" fill="none" xmlns="http://www.w3.org/2000/svg">
<g clip-path="url(#clip0_405_703)">
<path d="M15.7029 6.81357C16.6351 7.60913 16.9047 8.82221 16.9996 9.99283C17.0157 10.2674 17.0129 10.5422 17.0122 10.8171C17.0122 10.8849 17.0122 10.9527 17.0123 11.0205C17.0123 11.2032 17.012 11.3859 17.0118 11.5686C17.0115 11.76 17.0115 11.9515 17.0115 12.1429C17.0113 12.5048 17.011 12.8667 17.0106 13.2286C17.0101 13.718 17.0099 14.2075 17.0097 14.697C17.0093 15.4672 17.0085 16.2375 17.0078 17.0078C15.8992 17.0078 14.7906 17.0078 13.6484 17.0078C13.647 16.5672 13.6455 16.1265 13.644 15.6725C13.6428 15.3925 13.6416 15.1125 13.6403 14.8324C13.6382 14.3885 13.6361 13.9445 13.6349 13.5006C13.634 13.1771 13.6327 12.8537 13.6309 12.5303C13.63 12.3593 13.6292 12.1883 13.629 12.0173C13.6288 11.8558 13.628 11.6943 13.6268 11.5328C13.6264 11.4741 13.6263 11.4154 13.6264 11.3566C13.6269 10.6455 13.5606 9.88946 13.0405 9.3566C12.6975 9.05696 12.2756 8.98223 11.8288 9.00748C11.5165 9.03267 11.2257 9.06958 10.9531 9.23437C10.9136 9.25613 10.8742 9.27788 10.8335 9.30029C10.3355 9.6923 10.1378 10.2358 10.0631 10.8514C10.044 11.0818 10.0476 11.3134 10.0467 11.5444C10.0463 11.6041 10.0459 11.6638 10.0455 11.7235C10.0444 11.8848 10.0436 12.0461 10.0428 12.2074C10.042 12.3763 10.0409 12.5451 10.0399 12.714C10.0379 13.0334 10.0362 13.3529 10.0345 13.6723C10.0322 14.1042 10.0296 14.536 10.027 14.9679C10.023 15.6479 10.0193 16.3278 10.0156 17.0078C8.90703 17.0078 7.79844 17.0078 6.65625 17.0078C6.65625 13.4758 6.65625 9.94375 6.65625 6.30469C7.71328 6.30469 8.77031 6.30469 9.85938 6.30469C9.87227 6.75586 9.88516 7.20703 9.89844 7.67187C9.98867 7.54297 10.0789 7.41406 10.1719 7.28125C10.7528 6.53767 11.6466 6.15838 12.567 6.04346C13.6591 5.95081 14.8218 6.1249 15.7029 6.81357Z" fill="#4B5563"/>
<path d="M1.22656 6.30469C2.33516 6.30469 3.44375 6.30469 4.58594 6.30469C4.58594 9.83672 4.58594 13.3687 4.58594 17.0078C3.47734 17.0078 2.36875 17.0078 1.22656 17.0078C1.22656 13.4758 1.22656 9.94375 1.22656 6.30469Z" fill="#4B5563"/>
<path d="M3.99014 1.27051C4.43685 1.57591 4.71077 1.99444 4.8396 2.51639C4.93481 3.07951 4.82139 3.60406 4.50772 4.07812C4.21383 4.48093 3.79045 4.7681 3.29678 4.85937C2.87889 4.89982 2.46439 4.90327 2.08585 4.70312C2.03562 4.6776 2.03562 4.6776 1.98437 4.65155C1.51865 4.39445 1.20017 3.99402 1.0336 3.4873C0.903348 2.92478 0.976784 2.38394 1.25577 1.88086C1.53201 1.44992 1.93119 1.16884 2.41925 1.01935C2.96888 0.909051 3.50481 0.986557 3.99014 1.27051Z" fill="#4B5563"/>
</g>
<defs>
<clipPath id="clip0_405_703">
<rect width="18" height="18" fill="white"/>
</clipPath>
</defs>
</svg>
